<?xml version="1.0" encoding="UTF-8" standalone="no"?>
<svg width="136px" height="45px" viewBox="0 0 136 45" version="1.1" xmlns="http://www.w3.org/2000/svg" xmlns:xlink="http://www.w3.org/1999/xlink">
    <defs></defs>
    <g id="Page-1" stroke="none" stroke-width="1" fill="none" fill-rule="evenodd">
        <g id="Artboard" transform="translate(-147.000000, -23.000000)" fill-rule="nonzero">
            <g id="etton-logo-2.0-BV" transform="translate(147.453125, 23.025081)">
                <g id="SVGID_1_" transform="translate(0.192377, 6.761231)" fill="#363337">
                    <path d="M76.1186908,23.6186518 C73.8232639,24.859285 71.2991113,25.162551 68.7279883,25.1931839 C68.7290093,25.1931839 68.6963342,25.1931839 68.6268997,25.1931839 C67.5006293,25.1931839 64.1136494,24.8031247 61.6303407,23.6023143 C58.3424073,22.0134868 56.7964659,19.2320177 56.7607274,15.6142699 C56.7260101,12.0353236 58.2004748,9.23241151 61.4404166,7.63745741 C66.2365108,5.2766804 71.14901,5.32160868 76.037003,7.48735612 C79.2228267,8.89851267 80.8647511,11.8954334 80.8770044,15.5182867 C80.8902786,19.1370556 79.1186747,21.9961282 76.1186908,23.6186518 Z M71.3450607,11.0489437 C67.8049163,9.92063108 64.0942486,11.2705217 63.2242737,14.0162525 C63.1017419,14.4042695 63.0169909,14.8178139 62.9945267,15.2242107 C62.8178769,18.4764057 65.0142572,20.4032163 68.8760474,20.4032163 C71.8076178,20.4032163 73.677247,19.3657814 74.3971206,17.3409454 C75.3712475,14.6033835 74.0662852,11.9148342 71.3450607,11.0489437 Z M23.363697,17.00092 L6.01423214,17.00092 C6.4492196,18.9941019 7.81136345,19.843655 9.49719514,20.29498 C12.7248839,21.1598494 16.8644124,20.5962037 19.9399576,18.8695281 C20.2942784,19.5934861 20.6537047,20.3102965 20.99373,21.0352755 C21.3429453,21.7796556 21.6737809,22.5342465 22.115916,23.5104156 C20.83546,23.8800527 19.6703879,24.2935971 18.4726408,24.5498926 C14.9723191,25.2983569 11.4413645,25.4954287 7.92470525,24.7102049 C3.0377334,23.619673 0.158238917,20.4032163 0.097994174,16.09827 C0.0316228475,11.1970028 2.81615528,7.58129709 7.70925371,6.34066382 C10.419246,5.65346531 13.1731456,5.6595919 15.8800745,6.36312796 C20.7946161,7.64154182 23.6036549,11.5962518 23.363697,17.00092 Z M12.18166,9.77869859 C9.3961065,9.63370272 6.51865421,10.8375765 6.18271319,13.330075 L11.7395249,13.330075 L17.3106319,13.330075 C16.8041677,10.9989098 15.0764709,9.92982092 12.18166,9.77869859 Z M105.717421,25.1850151 L99.396829,25.1850151 C99.3733437,24.8541796 99.3202466,24.449825 99.3192255,24.0464916 C99.3100356,21.4375879 99.3488373,18.8276632 99.3008458,16.2197805 C99.2395799,12.8011467 97.7201871,11.3225977 94.3597557,11.3409775 C93.7624139,11.3450619 93.1528187,11.3828425 92.568751,11.5012898 C89.4196868,12.14356 89.0531129,12.6122436 89.0531129,15.8562699 L89.0531129,25.1972683 L82.7182251,25.1972683 L82.7182251,6.26612371 L88.0503953,6.26612371 C88.2198975,7.05134762 88.3873575,7.81921276 88.5874926,8.74636917 C91.1443202,6.49791281 94.0942704,5.69022482 97.3587186,5.88014893 C102.222205,6.16503507 105.493801,9.38966045 105.691894,14.4001851 C105.830763,17.9505405 105.717421,21.512128 105.717421,25.1850151 Z M31.6223322,18.2303212 C31.6876824,19.5026085 32.6148388,20.358288 33.9320544,20.2541362 C35.449405,20.1346677 36.9473548,19.7660516 38.6760726,19.4678912 C39.0140558,20.6523641 39.4429167,22.1574615 39.9075159,23.7861117 C36.414342,25.141108 33.0038769,25.7762305 29.4749646,24.5733779 C27.1529892,23.7820273 25.8133094,22.0430987 25.5804993,19.6200347 C25.3854697,17.5951986 25.4426511,15.5448352 25.4028284,13.5036617 C25.3844486,12.5611888 25.399765,11.6176948 25.399765,10.5046988 L25.3579001,5.75863834 L25.3579001,1.50066245 C27.4480862,0.994198175 29.4075721,0.51938792 31.4875474,0.0149658316 L31.4875474,5.66469739 L39.4102415,5.66469739 L39.4102415,10.4250531 L31.5855727,10.4250531 C31.5845516,13.1330032 31.4926528,15.6877888 31.6223322,18.2303212 Z M48.3826239,18.2374688 C48.4479741,19.5087351 49.3802359,20.3593092 50.6974515,20.2561784 C52.2148021,20.1346677 53.713773,19.7670726 55.4363642,19.4689122 C55.7753686,20.6564484 56.2032083,22.1635881 56.6678076,23.7891751 C53.1715703,25.142129 49.758042,25.7792938 46.2270873,24.5723567 C43.905112,23.7789641 42.5674745,22.0410565 42.3346643,19.6159503 C42.1406559,17.5900932 42.1968162,15.5397297 42.1569933,13.4995773 C42.1386137,12.5571044 42.1539301,11.6136104 42.1539301,10.4485384 L42.1161495,5.75659615 L42.1161495,1.50066245 C44.2073569,0.994198175 46.1688848,0.51938792 48.2488601,0.015986932 L48.2488601,5.66878178 L56.1715543,5.66878178 L56.1715543,10.4301587 L48.3438221,10.4301587 C48.3448433,13.1370876 48.2519234,15.6918732 48.3826239,18.2374688 Z" id="path-1"></path>
                </g>
                <g id="SVGID_3_" transform="translate(110.849012, 0.553860)" fill="#724DF0">
                    <path d="M23.7261209,22.1690498 L23.7271962,22.1228126 C23.7293469,21.9668964 23.7304222,21.9013039 23.7293469,21.758291 L23.7110677,21.758291 C23.5798823,19.1593281 22.5712653,16.9324137 20.7088725,15.1323872 C19.7389657,14.1958143 18.6206698,13.4495666 17.4851691,12.8269769 C17.7604419,12.3646045 18.0260372,11.9054579 18.2884067,11.4387844 C19.0841167,10.0215593 19.5389623,8.73551883 19.6765997,7.50754376 C19.8271396,6.17419081 19.5927271,4.95911917 18.9830403,3.89781323 C18.2389436,2.60532109 16.9550537,1.60530638 15.2550287,1.05583592 C9.55494477,-0.788277234 2.79032917,1.43218554 0.946216032,3.22576032 C0.297819311,3.85587713 -0.016163684,4.90965607 0.121472731,5.78063664 C0.340830764,7.16990438 0.860193256,8.44626725 1.66450609,9.57424084 C2.35591413,10.541997 3.24087339,11.395773 4.37314814,12.1850319 C6.09252833,13.3818238 8.13341852,14.2431268 10.1474267,15.0528161 C8.77428825,17.1657504 7.75169244,19.0464233 7.57642106,21.6292569 C7.57642106,21.6324828 7.57427054,21.6808706 7.57104471,21.758291 L7.56029187,21.758291 C7.55921655,21.818507 7.55921655,21.878723 7.55921655,21.9400142 C7.55921655,21.980875 7.55921655,22.0206605 7.56029187,22.0615213 C7.55706591,22.1701251 7.55491539,22.2851805 7.55491539,22.3970101 C7.55491539,22.4593767 7.55491539,22.5195927 7.55599072,22.5798085 L7.57534586,22.5798085 C7.5785717,22.6561538 7.58179754,22.7056169 7.58179754,22.7088427 C7.7559936,25.2916764 8.77751408,27.1723493 10.1517279,29.2852836 C8.13771968,30.0938976 6.09682949,30.9562759 4.37852462,32.1530677 C3.24624987,32.9412514 2.36129061,33.7950273 1.67095789,34.7638589 C0.866644928,35.8929076 0.348357759,37.1681953 0.127924404,38.5563877 C-0.00863681971,39.4284436 0.304271114,40.4822225 0.952667704,41.1123394 C2.79570565,42.9048389 9.55924593,45.1253016 15.2571792,43.2822638 C16.9561291,42.7327933 18.2400189,41.7338538 18.9841157,40.4392112 C19.5938025,39.3789805 19.8271396,38.1639088 19.6787503,36.8305559 C19.5400377,35.6015055 19.085192,34.3165403 18.2905572,32.8993153 C18.0271125,32.4326417 17.7615172,31.9734952 17.4862444,31.5111228 C18.6217451,30.8896082 19.7400411,30.1433607 20.7088725,29.2046372 C22.5712653,27.405686 23.5798823,25.1787715 23.7110677,22.5798085 L23.7293469,22.5798085 C23.7304222,22.4367957 23.7293469,22.3701281 23.7271962,22.2152871 L23.7261209,22.1690498 Z M5.44843277,6.30537553 C8.28503373,5.51504133 10.2097932,5.47310522 11.2958306,5.47310522 C13.2732792,5.47310522 14.4603934,5.99891941 14.6356648,6.41612986 C14.8023338,6.81506046 14.8378183,7.44732782 13.9851175,8.96347916 C13.6442523,9.57209028 13.2937095,10.1688732 12.9227364,10.7785596 C12.8087561,10.7323224 12.6969265,10.6785582 12.5807958,10.6419985 C9.92591802,9.80435176 6.44737227,8.10862788 5.44843277,6.30537553 Z M14.6378153,37.9230451 C14.4636192,38.3402555 13.2754297,38.8660697 11.2990565,38.8660697 C10.2119438,38.8660697 8.28718425,38.8241336 5.45273393,38.0327241 C6.4516733,36.2305471 9.92914385,34.5337479 12.5829464,33.6982517 C12.6990772,33.6616921 12.8109068,33.6079278 12.9248869,33.5616906 C13.2969353,34.1703017 13.6464029,34.7670847 13.9872682,35.3756958 C14.8399688,36.8907718 14.8055597,37.5241146 14.6378153,37.9230451 Z M14.7808282,27.2863294 C13.291559,25.0432857 12.6216566,23.9142368 12.5184293,22.3647516 C12.5152035,22.3034604 12.5130528,22.1884049 12.5119776,22.0733495 C12.5130528,22.033564 12.5141282,21.9991549 12.5162787,21.973348 C12.6195061,20.4238629 13.2904837,19.294814 14.7786777,17.0517703 C17.6378595,18.5421148 18.7260475,20.0034265 18.775511,22.1959319 C18.7099176,24.3583293 17.6163538,25.8088884 14.7808282,27.2863294 Z M7.57749638,21.6292569 C7.57749638,21.6281816 7.57749638,21.6314075 7.57749638,21.6410851 C7.57749638,21.6378593 7.57749638,21.6335581 7.57749638,21.6292569 Z M7.58287286,22.7088427 C7.58287286,22.7045416 7.58179754,22.7002404 7.58179754,22.6970146 C7.58287286,22.7066921 7.58287286,22.7099181 7.58287286,22.7088427 Z" id="path-3"></path>
                </g>
            </g>
        </g>
    </g>
</svg>